<svg xmlns="http://www.w3.org/2000/svg" viewBox="0 0 153.32 153.32"><defs><style>.cls-1{fill:none;}.cls-2{fill:#272727;}</style></defs><title>hops-icon</title><g id="Layer_2" data-name="Layer 2"><g id="Layer_1-2" data-name="Layer 1"><rect class="cls-1" width="153.32" height="153.32"/><path class="cls-2" d="M127.65,66.14a48,48,0,0,0-8-1.58c2-18.78-7.06-30.48-7.47-31a2.52,2.52,0,0,0-2.73-.84c-.48.15-1,.32-1.43.49a30.94,30.94,0,0,0-6.1-15.6,2.52,2.52,0,0,0-2.54-.81,17,17,0,0,0-4.15,1.75C89.4,6.91,78.14,2.07,77.63,1.85h0l-.16-.06-.07,0a1.05,1.05,0,0,0-.24-.06l-.11,0-.14,0h-.51a2.45,2.45,0,0,0-.58.14l-.11,0h0C75.17,2.07,63.91,6.91,58,18.56a17,17,0,0,0-4.16-1.75,2.52,2.52,0,0,0-2.54.81,31.08,31.08,0,0,0-6.09,15.6c-.47-.17-1-.34-1.44-.49a2.53,2.53,0,0,0-2.73.84c-.4.51-9.43,12.22-7.46,31a49.32,49.32,0,0,0-8,1.56,2.52,2.52,0,0,0-1.76,2.44c.55,44.13,37.43,47.56,48.72,47.56l1.52,0v33a2.52,2.52,0,0,0,5,0V133.36c0-4.25,1.32-7,3.62-7.56A4.93,4.93,0,0,1,88,128.15c1,2-.46,3.9-1.9,5.15a2.52,2.52,0,0,0,3.31,3.81c3.84-3.35,5-7.56,3.07-11.28a10,10,0,0,0-10.88-4.93,8.45,8.45,0,0,0-2.43,1v-5.79c.49,0,1,0,1.65,0,7.46,0,22.77-1.4,34.33-11.65,9.27-8.22,14.06-20.3,14.26-35.92A2.54,2.54,0,0,0,127.65,66.14Zm-13-2a40.94,40.94,0,0,0-19.82,4.11,24.77,24.77,0,0,0-5.76-11c2-3.94,8.28-14.68,20.16-19.19A41.85,41.85,0,0,1,114.67,64.18ZM77.39,49.65l-.16,0h-.07l-.17,0h-.57l-.16,0h-.09l-.12,0-.12,0a27.73,27.73,0,0,0-7.83,4.17,49.2,49.2,0,0,0-7.75-10.65C67.7,27.94,76.16,27.07,76.68,27s8.9.84,16.29,16.14a49.2,49.2,0,0,0-7.75,10.65A27.87,27.87,0,0,0,77.39,49.65ZM103.2,35.36a39.76,39.76,0,0,0-6.38,4.25,44.5,44.5,0,0,0-7-10.24c2.31-2.34,6-5.65,9.27-7.12A27.9,27.9,0,0,1,103.2,35.36ZM76.66,7C79.36,8.35,87,12.88,91.07,21.44a56.34,56.34,0,0,0-5,4.53C81,22.08,77,22,76.67,22h0c-.29,0-4.32.09-9.43,4a55.23,55.23,0,0,0-5-4.53C66.29,12.92,74,8.36,76.66,7ZM54.22,22.26c3.26,1.46,7,4.78,9.26,7.11a45.14,45.14,0,0,0-7,10.24,39.66,39.66,0,0,0-6.37-4.25A28.18,28.18,0,0,1,54.22,22.26ZM44.07,38.15C56,42.66,62.25,53.4,64.23,57.34a24.7,24.7,0,0,0-5.77,11A40.85,40.85,0,0,0,40,64.2l-1.34,0A41.85,41.85,0,0,1,44.07,38.15ZM72.62,111.1c-12.75,0-42.16-4-43.63-40.62a50.61,50.61,0,0,1,11-1.24c6.25,0,13,1.24,18.8,5.07a1.77,1.77,0,0,0,.32.21c8.22,5.59,14.55,16.46,15,36.56Zm39.23-10.4c-11.18,9.94-26.94,10.52-32.7,10.37-.48-21.7-7.5-33.58-16.12-39.95a20.17,20.17,0,0,1,5.74-11.23,2.51,2.51,0,0,0,.47-.45,23.54,23.54,0,0,1,7.42-4.7,23.78,23.78,0,0,1,7.43,4.7,2.4,2.4,0,0,0,.45.45,20.21,20.21,0,0,1,5.75,11.24,32.28,32.28,0,0,0-4.71,4.28A36.84,36.84,0,0,0,80,83.73,2.52,2.52,0,1,0,84.46,86a31.69,31.69,0,0,1,4.85-7.19c11.27-12.41,29.28-9.6,35-8.3C123.8,83.65,119.6,93.81,111.85,100.7Z"/></g></g></svg>